<mxfile host="Electron" modified="2023-08-22T11:16:04.700Z" agent="Mozilla/5.0 (Macintosh; Intel Mac OS X 10_15_7) AppleWebKit/537.36 (KHTML, like Gecko) draw.io/21.6.8 Chrome/114.0.5735.289 Electron/25.5.0 Safari/537.36" etag="zlBCjArN6z6q2nE5J9gq" version="21.6.8" type="device">
  <diagram name="Page-1" id="CssorIFW5meRty-u_23G">
    <mxGraphModel dx="1120" dy="813" grid="1" gridSize="10" guides="1" tooltips="1" connect="1" arrows="1" fold="1" page="1" pageScale="1" pageWidth="1169" pageHeight="827" math="0" shadow="0">
      <root>
        <mxCell id="0" />
        <mxCell id="1" parent="0" />
        <mxCell id="ywP69xhLLevax50-P0Fp-3" value="" style="shape=image;verticalLabelPosition=bottom;labelBackgroundColor=default;verticalAlign=top;aspect=fixed;imageAspect=0;image=https://raw.githubusercontent.com/cncf/artwork/master/projects/etcd/horizontal/color/etcd-horizontal-color.png;" parent="1" vertex="1">
          <mxGeometry x="210" y="410" width="470" height="168.81" as="geometry" />
        </mxCell>
      </root>
    </mxGraphModel>
  </diagram>
</mxfile>
